<svg width="131" height="35" viewBox="0 0 131 35" fill="none" xmlns="http://www.w3.org/2000/svg">
<path fill-rule="evenodd" clip-rule="evenodd" d="M28.3636 10C28.1466 10 27.9385 10.0862 27.7851 10.2396C27.6317 10.3931 27.5455 10.6012 27.5455 10.8182C27.5455 11.0352 27.6317 11.2433 27.7851 11.3967C27.9385 11.5502 28.1466 11.6364 28.3636 11.6364H29.1818V12.5053C28.0167 12.6504 26.9125 13.1078 25.986 13.8291L25.0205 12.8636L25.6694 12.2148C25.8184 12.0605 25.9009 11.8538 25.899 11.6393C25.8971 11.4248 25.8111 11.2196 25.6594 11.0679C25.5077 10.9162 25.3025 10.8301 25.088 10.8283C24.8734 10.8264 24.6668 10.9089 24.5125 11.0579L22.0579 13.5125C21.9089 13.6668 21.8264 13.8734 21.8283 14.088C21.8301 14.3025 21.9162 14.5077 22.0679 14.6594C22.2196 14.8111 22.4248 14.8971 22.6393 14.899C22.8538 14.9009 23.0605 14.8184 23.2148 14.6694L23.8636 14.0205L24.8291 14.986C24.1078 15.9125 23.6504 17.0167 23.5053 18.1818H22.6364V17.3636C22.6364 17.1466 22.5502 16.9385 22.3967 16.7851C22.2433 16.6317 22.0352 16.5455 21.8182 16.5455C21.6012 16.5455 21.3931 16.6317 21.2396 16.7851C21.0862 16.9385 21 17.1466 21 17.3636V20.6364C21 20.8534 21.0862 21.0615 21.2396 21.2149C21.3931 21.3683 21.6012 21.4545 21.8182 21.4545C22.0352 21.4545 22.2433 21.3683 22.3967 21.2149C22.5502 21.0615 22.6364 20.8534 22.6364 20.6364V19.8182H23.5053C23.6542 21.0127 24.1263 22.1091 24.8291 23.014L23.8636 23.9795L23.2148 23.3306C23.0605 23.1816 22.8538 23.0991 22.6393 23.101C22.4248 23.1029 22.2196 23.1889 22.0679 23.3406C21.9162 23.4923 21.8301 23.6975 21.8283 23.912C21.8264 24.1266 21.9089 24.3332 22.0579 24.4875L24.5125 26.9421C24.6668 27.0911 24.8734 27.1736 25.088 27.1717C25.3025 27.1699 25.5077 27.0838 25.6594 26.9321C25.8111 26.7804 25.8971 26.5752 25.899 26.3607C25.9009 26.1462 25.8184 25.9395 25.6694 25.7852L25.0205 25.1364L25.986 24.1709C26.9126 24.892 28.0167 25.3494 29.1818 25.4947V26.3636H28.3636C28.1466 26.3636 27.9385 26.4498 27.7851 26.6033C27.6317 26.7567 27.5455 26.9648 27.5455 27.1818C27.5455 27.3988 27.6317 27.6069 27.7851 27.7604C27.9385 27.9138 28.1466 28 28.3636 28H31.6364C31.8534 28 32.0615 27.9138 32.2149 27.7604C32.3683 27.6069 32.4545 27.3988 32.4545 27.1818C32.4545 26.9648 32.3683 26.7567 32.2149 26.6033C32.0615 26.4498 31.8534 26.3636 31.6364 26.3636H30.8182V25.4947C31.9833 25.3494 33.0874 24.892 34.014 24.1709L34.9795 25.1364L34.3306 25.7852C34.1816 25.9395 34.0991 26.1462 34.101 26.3607C34.1029 26.5752 34.1889 26.7804 34.3406 26.9321C34.4923 27.0838 34.6975 27.1699 34.912 27.1717C35.1266 27.1736 35.3332 27.0911 35.4875 26.9421L37.9421 24.4875C38.0911 24.3332 38.1736 24.1266 38.1717 23.912C38.1699 23.6975 38.0838 23.4923 37.9321 23.3406C37.7804 23.1889 37.5752 23.1029 37.3607 23.101C37.1462 23.0991 36.9395 23.1816 36.7852 23.3306L36.1364 23.9795L35.1709 23.014C35.892 22.0874 36.3494 20.9833 36.4947 19.8182H37.3636V20.6364C37.3636 20.8534 37.4498 21.0615 37.6033 21.2149C37.7567 21.3683 37.9648 21.4545 38.1818 21.4545C38.3988 21.4545 38.6069 21.3683 38.7604 21.2149C38.9138 21.0615 39 20.8534 39 20.6364V17.3636C39 17.1466 38.9138 16.9385 38.7604 16.7851C38.6069 16.6317 38.3988 16.5455 38.1818 16.5455C37.9648 16.5455 37.7567 16.6317 37.6033 16.7851C37.4498 16.9385 37.3636 17.1466 37.3636 17.3636V18.1818H36.4947C36.3494 17.0167 35.892 15.9126 35.1709 14.986L36.1364 14.0205L36.7852 14.6694C36.8607 14.7475 36.9509 14.8098 37.0508 14.8527C37.1506 14.8956 37.2579 14.9182 37.3666 14.9191C37.4752 14.9201 37.583 14.8994 37.6835 14.8582C37.7841 14.8171 37.8754 14.7563 37.9522 14.6795C38.0291 14.6027 38.0898 14.5113 38.1309 14.4108C38.1721 14.3102 38.1928 14.2025 38.1918 14.0939C38.1909 13.9852 38.1683 13.8779 38.1254 13.778C38.0826 13.6782 38.0202 13.5879 37.9421 13.5125L35.4875 11.0579C35.4121 10.9798 35.3218 10.9174 35.222 10.8746C35.1221 10.8317 35.0148 10.8091 34.9061 10.8082C34.7975 10.8072 34.6898 10.8279 34.5892 10.8691C34.4887 10.9102 34.3973 10.9709 34.3205 11.0478C34.2437 11.1246 34.1829 11.2159 34.1418 11.3165C34.1006 11.417 34.0799 11.5248 34.0809 11.6334C34.0818 11.7421 34.1044 11.8494 34.1473 11.9492C34.1902 12.0491 34.2525 12.1393 34.3306 12.2148L34.9795 12.8636L34.014 13.8291C33.0874 13.108 31.9832 12.6506 30.8182 12.5053V11.6364H31.6364C31.8534 11.6364 32.0615 11.5502 32.2149 11.3967C32.3683 11.2433 32.4545 11.0352 32.4545 10.8182C32.4545 10.6012 32.3683 10.3931 32.2149 10.2396C32.0615 10.0862 31.8534 10 31.6364 10H28.3636ZM30.8182 20.6364C30.8182 20.4194 30.9044 20.2113 31.0578 20.0578C31.2113 19.9044 31.4194 19.8182 31.6364 19.8182H31.6372C31.8542 19.8182 32.0623 19.9044 32.2157 20.0578C32.3692 20.2113 32.4554 20.4194 32.4554 20.6364C32.4554 20.8534 32.3692 21.0615 32.2157 21.2149C32.0623 21.3683 31.8542 21.4545 31.6372 21.4545H31.6364C31.4194 21.4545 31.2113 21.3683 31.0578 21.2149C30.9044 21.0615 30.8182 20.8534 30.8182 20.6364ZM28.3636 17.7727C28.3636 17.6642 28.4067 17.5602 28.4835 17.4835C28.5602 17.4067 28.6642 17.3636 28.7727 17.3636C28.8812 17.3636 28.9853 17.4067 29.062 17.4835C29.1387 17.5602 29.1818 17.6642 29.1818 17.7727C29.1818 17.8812 29.1387 17.9853 29.062 18.062C28.9853 18.1387 28.8812 18.1818 28.7727 18.1818C28.6642 18.1818 28.5602 18.1387 28.4835 18.062C28.4067 17.9853 28.3636 17.8812 28.3636 17.7727ZM28.7727 15.7273C28.2302 15.7273 27.71 15.9428 27.3264 16.3264C26.9428 16.71 26.7273 17.2302 26.7273 17.7727C26.7273 18.3152 26.9428 18.8355 27.3264 19.2191C27.71 19.6027 28.2302 19.8182 28.7727 19.8182C29.3152 19.8182 29.8355 19.6027 30.2191 19.2191C30.6027 18.8355 30.8182 18.3152 30.8182 17.7727C30.8182 17.2302 30.6027 16.71 30.2191 16.3264C29.8355 15.9428 29.3152 15.7273 28.7727 15.7273Z" fill="#343A45"/>
<path d="M18.9375 10.7734C16.7891 10.8359 15.4766 10.8672 15 10.8672C14.4375 10.8672 13.2773 10.8359 11.5195 10.7734C11.4727 10.9453 11.4727 11.1289 11.5195 11.3242C12.332 11.3711 12.8945 11.4414 13.207 11.5352C13.5195 11.6289 13.6758 11.8203 13.6758 12.1094C13.6758 12.25 13.6289 12.3633 13.5352 12.4492L6.89062 18.8594H6.07031C6.07031 16.7266 6.11719 14.5898 6.21094 12.4492C6.22656 11.8555 7.53125 11.4805 10.125 11.3242C10.1719 11.1758 10.1719 10.9922 10.125 10.7734C8.07812 10.8359 6.48047 10.8672 5.33203 10.8672C4.37109 10.8672 3.00781 10.8359 1.24219 10.7734C1.17969 10.9141 1.17969 11.0977 1.24219 11.3242C3.03906 11.4961 3.94531 11.8711 3.96094 12.4492C4.03906 14.2852 4.07812 16.4688 4.07812 19C4.07812 21.4766 4.03125 23.9414 3.9375 26.3945C3.92188 26.9727 3.01562 27.3477 1.21875 27.5195C1.15625 27.6445 1.15625 27.8281 1.21875 28.0703C2.54688 28.0234 3.91016 28 5.30859 28C6.97266 28 8.57031 28.0234 10.1016 28.0703C10.1641 27.9453 10.1641 27.7617 10.1016 27.5195C7.50781 27.3633 6.20312 26.9883 6.1875 26.3945C6.10938 23.957 6.07031 21.7812 6.07031 19.8672L7.00781 19.8438L12.7148 25.7734C13.1367 26.2188 13.3477 26.5352 13.3477 26.7227C13.3477 26.9961 13.2227 27.1953 12.9727 27.3203C12.7227 27.4375 12.2227 27.5039 11.4727 27.5195C11.4102 27.7617 11.4102 27.9453 11.4727 28.0703V28.0938C13.1992 28.0312 14.6797 28 15.9141 28C17.7188 28 19.1719 28.0234 20.2734 28.0703C20.3281 27.8984 20.3281 27.7148 20.2734 27.5195C18.4531 27.457 16.9922 26.875 15.8906 25.7734L8.66016 18.4492L14.9766 12.4492C15.3906 12.1602 15.8516 11.9336 16.3594 11.7695C16.875 11.5977 17.2969 11.4922 17.625 11.4531C17.9531 11.4141 18.3906 11.3711 18.9375 11.3242C18.9844 11.1289 18.9844 10.9453 18.9375 10.7734ZM19.5586 11.7812C17.6836 11.9062 16.3398 12.25 15.5273 12.8125L10.1484 17.9453L17.5195 25.4102C18.6211 26.5117 19.7188 27.0859 20.8125 27.1328C20.9375 27.6484 20.9375 28.1289 20.8125 28.5742C18.6953 28.4492 15.4688 28.4492 11.1328 28.5742C10.9766 28.1289 10.9531 27.6484 11.0625 27.1328C12.2656 27.1016 12.8672 26.9648 12.8672 26.7227C12.8672 26.6445 11.2031 24.8789 7.875 21.4258C7.875 22.8789 7.91406 24.5273 7.99219 26.3711C7.99219 26.418 8.01172 26.4648 8.05078 26.5117C8.08984 26.5586 8.14453 26.5977 8.21484 26.6289C8.29297 26.6602 8.37109 26.6953 8.44922 26.7344C8.52734 26.7656 8.63281 26.7969 8.76562 26.8281C8.90625 26.8594 9.02344 26.8867 9.11719 26.9102C9.21094 26.9336 9.33594 26.957 9.49219 26.9805C9.65625 27.0039 9.78516 27.0234 9.87891 27.0391C9.98047 27.0547 10.1133 27.0703 10.2773 27.0859C10.4492 27.1016 10.5664 27.1172 10.6289 27.1328C10.7461 27.6484 10.7227 28.1289 10.5586 28.5742C7.67578 28.5117 5.92578 28.4805 5.30859 28.4805C4.88672 28.4805 3.41406 28.5117 0.890625 28.5742C0.695312 28.0352 0.695312 27.5312 0.890625 27.0625C2.58594 26.8906 3.44141 26.6602 3.45703 26.3711C3.55078 24.418 3.59766 21.9609 3.59766 19C3.59766 16.4844 3.55859 14.3086 3.48047 12.4727C3.46484 12.1836 2.59375 11.9531 0.867188 11.7812C0.734375 11.2656 0.75 10.7617 0.914062 10.2695C1.60156 10.2695 2.53125 10.2891 3.70312 10.3281C4.88281 10.3672 5.70312 10.3867 6.16406 10.3867C6.5 10.3867 7.125 10.3789 8.03906 10.3633C8.95312 10.3477 9.76172 10.3398 10.4648 10.3398C10.6055 10.7852 10.6133 11.2656 10.4883 11.7812C8.85547 11.9375 8.03125 12.168 8.01562 12.4727C7.9375 14.0898 7.89062 15.6797 7.875 17.2422L13.1953 12.1094C13.1953 11.9844 12.5312 11.875 11.2031 11.7812C11.0469 11.25 11.0547 10.7539 11.2266 10.293C14.0625 10.418 16.8398 10.4336 19.5586 10.3398C19.6836 10.7852 19.6836 11.2656 19.5586 11.7812Z" fill="#343A45"/>
<path d="M41.5547 14.1719C43.9844 14.2578 46.4141 14.2578 48.8438 14.1719C49.0234 14.7031 49.0234 15.1758 48.8438 15.5898C48.3359 15.668 47.9961 15.7617 47.8242 15.8711C47.6602 15.9727 47.625 16.1602 47.7188 16.4336L48.9961 19.8672L50.4375 16.4336C50.5625 16.1445 50.5508 15.9531 50.4023 15.8594C50.2617 15.7578 49.9375 15.668 49.4297 15.5898C49.25 15.1133 49.25 14.6406 49.4297 14.1719C51.0781 14.2188 52.7148 14.2188 54.3398 14.1719C54.5195 14.6406 54.5195 15.1133 54.3398 15.5898C53.7539 15.6367 53.3359 15.7266 53.0859 15.8594C52.8359 15.9844 52.6484 16.1914 52.5234 16.4805L48.3984 25.8203H47.168L43.5 16.457C43.3828 16.1836 43.1758 15.9883 42.8789 15.8711C42.5898 15.7461 42.1484 15.6523 41.5547 15.5898C41.375 15.1133 41.375 14.6406 41.5547 14.1719ZM48.4922 14.6055C46.2969 14.6836 44.1055 14.6836 41.918 14.6055C41.832 14.8164 41.832 15 41.918 15.1562C42.5039 15.2266 42.9492 15.332 43.2539 15.4727C43.5586 15.6133 43.793 15.8867 43.957 16.293L47.5078 25.3398H48.082L52.0898 16.293C52.4258 15.582 53.0586 15.2031 53.9883 15.1562C54.0664 15 54.0664 14.8164 53.9883 14.6055C52.5977 14.6523 51.1953 14.6523 49.7812 14.6055C49.7031 14.8164 49.7031 15 49.7812 15.1562C50.0859 15.1719 50.3281 15.2109 50.5078 15.2734C50.6953 15.3281 50.8633 15.4414 51.0117 15.6133C51.168 15.7773 51.168 16.0039 51.0117 16.293L48.293 22.7148L45.9727 16.293C45.8867 16.082 45.8867 15.9062 45.9727 15.7656C46.0664 15.6172 46.25 15.5039 46.5234 15.4258C46.7969 15.3477 47.0742 15.293 47.3555 15.2617C47.6445 15.2227 48.0234 15.1875 48.4922 15.1562C48.5703 15 48.5703 14.8164 48.4922 14.6055ZM59.0391 8.53516C60.8047 8.53516 61.6875 9.17578 61.6875 10.457C61.6875 11.7383 60.8047 12.3789 59.0391 12.3789C58.7734 12.3789 58.5234 12.3281 58.2891 12.2266C58.0625 12.125 57.8633 11.9883 57.6914 11.8164C57.5195 11.6367 57.3828 11.4297 57.2812 11.1953C57.1797 10.9609 57.1289 10.7148 57.1289 10.457C57.1289 10.1992 57.1797 9.95312 57.2812 9.71875C57.3828 9.48438 57.5195 9.28125 57.6914 9.10938C57.8633 8.92969 58.0625 8.78906 58.2891 8.6875C58.5234 8.58594 58.7734 8.53516 59.0391 8.53516ZM57.9609 9.44922C57.7266 9.72266 57.6094 10.0586 57.6094 10.457C57.6094 10.6602 57.6406 10.8516 57.7031 11.0312C57.7734 11.2031 57.8672 11.3555 57.9844 11.4883C58.1016 11.6133 58.2344 11.7148 58.3828 11.793C58.5391 11.8633 58.7031 11.8984 58.875 11.8984C59.0391 11.8984 59.1992 11.8633 59.3555 11.793C59.5117 11.7148 59.6484 11.6133 59.7656 11.4883C59.8828 11.3555 59.9766 11.2031 60.0469 11.0312C60.1172 10.8516 60.1523 10.6602 60.1523 10.457C60.1523 10.2539 60.1172 10.0664 60.0469 9.89453C59.9766 9.71484 59.8828 9.5625 59.7656 9.4375C59.6484 9.30469 59.5117 9.20312 59.3555 9.13281C59.1992 9.05469 59.0391 9.01562 58.875 9.01562C58.7109 9.01562 58.5508 9.05078 58.3945 9.12109C58.2383 9.19141 58.0938 9.30078 57.9609 9.44922ZM62.6953 24.4609C60.8359 24.2891 59.8984 23.9141 59.8828 23.3359C59.8047 20.9922 59.7734 18.1133 59.7891 14.6992C59.7266 14.5742 59.5898 14.4727 59.3789 14.3945C58.293 14.9023 57.1641 15.2227 55.9922 15.3555C55.9453 15.543 55.9453 15.7266 55.9922 15.9062C56.875 15.9531 57.5469 16.1133 58.0078 16.3867C58.0781 19.3008 58.0703 21.6172 57.9844 23.3359C57.9688 23.9141 57.3047 24.2891 55.9922 24.4609C55.9141 24.6562 55.9141 24.8477 55.9922 25.0352C58.2344 24.9883 60.4688 24.9883 62.6953 25.0352C62.7734 24.8477 62.7734 24.6562 62.6953 24.4609ZM63.1289 24.0273C63.2539 24.5117 63.2539 24.9844 63.1289 25.4453C60.6133 25.3672 58.0938 25.3672 55.5703 25.4453C55.4375 24.9844 55.4375 24.5117 55.5703 24.0273C56.8438 23.9023 57.4883 23.6641 57.5039 23.3125C57.6055 21.125 57.6133 18.9102 57.5273 16.668C57.0039 16.5117 56.3516 16.4102 55.5703 16.3633C55.3906 15.8945 55.3906 15.3984 55.5703 14.875C56.75 14.8125 58.0781 14.4609 59.5547 13.8203C60.3984 13.8828 61.0273 14.1367 61.4414 14.582C61.4102 18.4258 61.4414 21.3359 61.5352 23.3125C61.5586 23.6641 62.0898 23.9023 63.1289 24.0273ZM70.6406 23.8047C69.7109 23.8047 69.0039 23.4297 68.5195 22.6797C68.043 21.9219 67.8047 20.9688 67.8047 19.8203C67.8047 18.8906 67.8984 18.0938 68.0859 17.4297C68.2812 16.7656 68.5352 16.2773 68.8477 15.9648C69.1602 15.6523 69.4648 15.4336 69.7617 15.3086C70.0586 15.1758 70.3594 15.1094 70.6641 15.1094C71.7656 15.1094 72.5898 15.5742 73.1367 16.5039V18.2031C73.1367 20.3359 73.1289 21.7852 73.1133 22.5508C72.2461 23.3867 71.4219 23.8047 70.6406 23.8047ZM78.293 24.0625C78.5508 24.5781 78.5352 25.0742 78.2461 25.5508C76.2461 25.4883 74.5664 25.4883 73.207 25.5508C72.918 25.4258 72.7344 25.2656 72.6562 25.0703C71.8984 25.5703 70.8477 25.8203 69.5039 25.8203C68.1758 25.8203 67.0977 25.3242 66.2695 24.332C65.4492 23.3398 65.0391 21.9883 65.0391 20.2773C65.0391 19.5195 65.1523 18.7812 65.3789 18.0625C65.6055 17.3438 65.9453 16.6641 66.3984 16.0234C66.8516 15.3828 67.4805 14.8633 68.2852 14.4648C69.0977 14.0664 70.0234 13.8672 71.0625 13.8672C71.7734 13.8672 72.3047 13.8828 72.6562 13.9141C72.6406 12.6797 72.6328 11.1992 72.6328 9.47266C72.1172 9.30859 71.4023 9.20312 70.4883 9.15625C70.3164 8.69531 70.3164 8.19922 70.4883 7.66797C71.582 7.57422 72.9688 7.22266 74.6484 6.61328C75.4922 6.67578 76.1211 6.93359 76.5352 7.38672C76.5352 16.3008 76.5703 21.6289 76.6406 23.3711C76.6562 23.707 77.207 23.9375 78.293 24.0625ZM72.6562 16.6211C72.2656 16.0664 71.7539 15.7383 71.1211 15.6367C70.5742 15.7539 70.1055 16.1328 69.7148 16.7734C69.3242 17.4062 69.1289 18.4219 69.1289 19.8203C69.1289 20.7266 69.2852 21.4961 69.5977 22.1289C69.918 22.7617 70.3984 23.1445 71.0391 23.2773C71.5547 23.1602 72.0859 22.8555 72.6328 22.3633C72.6484 21.5898 72.6562 20.2031 72.6562 18.2031V16.6211ZM77.8594 24.4961C77.4609 24.4648 77.1562 24.4336 76.9453 24.4023C76.7422 24.3711 76.4531 24.3164 76.0781 24.2383C75.7109 24.1523 75.4336 24.043 75.2461 23.9102C75.0664 23.7695 74.9766 23.5977 74.9766 23.3945C74.9141 21.6523 74.8828 16.3555 74.8828 7.50391C74.8047 7.36328 74.668 7.25781 74.4727 7.1875C73.4336 7.6875 72.2266 8.00781 70.8516 8.14844C70.8047 8.34375 70.8047 8.52734 70.8516 8.69922C71.9062 8.75391 72.6602 8.91406 73.1133 9.17969C73.1133 11.3906 73.1211 13.2383 73.1367 14.7227C72.332 14.4727 71.6406 14.3477 71.0625 14.3477C70.1406 14.3477 69.3242 14.5312 68.6133 14.8984C67.9102 15.2656 67.3594 15.75 66.9609 16.3516C66.5625 16.9453 66.2617 17.5742 66.0586 18.2383C65.8633 18.9023 65.7656 19.582 65.7656 20.2773C65.7656 21.8398 66.1133 23.0742 66.8086 23.9805C67.5039 24.8867 68.3398 25.3398 69.3164 25.3398C70.5508 25.3398 71.8047 24.707 73.0781 23.4414C73.0781 24.0977 73.0625 24.5195 73.0312 24.707C73.1172 24.8867 73.2148 25.0078 73.3242 25.0703C73.582 25.0547 73.8359 25.0391 74.0859 25.0234C74.3438 25.0078 74.5469 24.9961 74.6953 24.9883C74.8516 24.9805 74.9883 24.9766 75.1055 24.9766C75.5352 24.9766 76.4531 25 77.8594 25.0469C77.9688 24.8906 77.9688 24.707 77.8594 24.4961ZM91.7578 14.6055H85.9102C85.8242 14.7852 85.8242 14.9688 85.9102 15.1562C86.6133 15.2891 87.0586 15.668 87.2461 16.293L87.7266 17.5586L85.5938 22.2695H85.5469L83.1445 16.293C83.0195 15.9727 83.0859 15.7344 83.3438 15.5781C83.6094 15.4141 84.0469 15.2734 84.6562 15.1562C84.7344 14.9688 84.7344 14.7852 84.6562 14.6055H78.9961C78.9102 14.7852 78.9102 14.9688 78.9961 15.1562C80.0352 15.3203 80.6836 15.6992 80.9414 16.293L84.6562 25.3398H85.207L88.1836 18.7656L90.7266 25.3398H91.2773L95.2148 16.293C95.5039 15.6055 96.1055 15.2266 97.0195 15.1562C97.0977 14.9688 97.0977 14.7852 97.0195 14.6055H93.0352C92.957 14.7852 92.957 14.9688 93.0352 15.1562C93.2539 15.1719 93.4375 15.2031 93.5859 15.25C93.7422 15.2891 93.8906 15.3477 94.0312 15.4258C94.1797 15.5039 94.2578 15.6133 94.2656 15.7539C94.2734 15.8867 94.2461 16.0664 94.1836 16.293L91.6641 22.2695H91.6172L89.4609 16.293C89.4609 16.1758 89.4375 16.0703 89.3906 15.9766C89.3516 15.8828 89.3711 15.8008 89.4492 15.7305C89.5352 15.6523 89.5938 15.5898 89.625 15.543C89.6562 15.4961 89.7422 15.4531 89.8828 15.4141C90.0312 15.375 90.1523 15.3438 90.2461 15.3203C90.3477 15.2969 90.4961 15.2734 90.6914 15.25C90.8945 15.2188 91.0625 15.1992 91.1953 15.1914C91.3359 15.1836 91.5234 15.1719 91.7578 15.1562C91.8359 14.9688 91.8359 14.7852 91.7578 14.6055ZM85.5703 14.1719H92.0977C92.3555 14.6719 92.3555 15.1445 92.0977 15.5898C91.9023 15.6055 91.7656 15.6211 91.6875 15.6367C91.6094 15.6523 91.4922 15.6719 91.3359 15.6953C91.1875 15.7188 91.0938 15.75 91.0547 15.7891C91.0156 15.8203 90.9531 15.8633 90.8672 15.918C90.7891 15.9727 90.7656 16.0352 90.7969 16.1055C90.8281 16.1758 90.8438 16.2695 90.8438 16.3867L92.1445 19.8906L93.6328 16.3867C93.7422 16.1289 93.7188 15.9453 93.5625 15.8359C93.4141 15.7188 93.125 15.6367 92.6953 15.5898C92.4375 15.1445 92.4375 14.6719 92.6953 14.1719H97.3477C97.5898 14.6562 97.582 15.1289 97.3242 15.5898C96.8008 15.6211 96.418 15.707 96.1758 15.8477C95.9336 15.9805 95.7578 16.1914 95.6484 16.4805L91.5938 25.8203H90.3984L88.1367 19.9844L85.5234 25.8203H84.3164L80.4844 16.4805C80.3672 16.207 80.1797 16.0156 79.9219 15.9062C79.6719 15.7891 79.2578 15.6836 78.6797 15.5898C78.4531 15.1758 78.4453 14.7031 78.6562 14.1719H84.9961C85.1992 14.7031 85.1914 15.1758 84.9727 15.5898C84.5039 15.6211 84.3672 15.8867 84.5625 16.3867L86.0742 20.0781L87.2227 17.5586L86.7656 16.4102C86.5938 15.9805 86.2031 15.707 85.5938 15.5898C85.3672 15.1758 85.3594 14.7031 85.5703 14.1719ZM102.047 8.53516C103.812 8.53516 104.695 9.17578 104.695 10.457C104.695 11.7383 103.812 12.3789 102.047 12.3789C101.781 12.3789 101.531 12.3281 101.297 12.2266C101.07 12.125 100.871 11.9883 100.699 11.8164C100.527 11.6367 100.391 11.4297 100.289 11.1953C100.188 10.9609 100.137 10.7148 100.137 10.457C100.137 10.1992 100.188 9.95312 100.289 9.71875C100.391 9.48438 100.527 9.28125 100.699 9.10938C100.871 8.92969 101.07 8.78906 101.297 8.6875C101.531 8.58594 101.781 8.53516 102.047 8.53516ZM100.969 9.44922C100.734 9.72266 100.617 10.0586 100.617 10.457C100.617 10.6602 100.648 10.8516 100.711 11.0312C100.781 11.2031 100.875 11.3555 100.992 11.4883C101.109 11.6133 101.242 11.7148 101.391 11.793C101.547 11.8633 101.711 11.8984 101.883 11.8984C102.047 11.8984 102.207 11.8633 102.363 11.793C102.52 11.7148 102.656 11.6133 102.773 11.4883C102.891 11.3555 102.984 11.2031 103.055 11.0312C103.125 10.8516 103.16 10.6602 103.16 10.457C103.16 10.2539 103.125 10.0664 103.055 9.89453C102.984 9.71484 102.891 9.5625 102.773 9.4375C102.656 9.30469 102.52 9.20312 102.363 9.13281C102.207 9.05469 102.047 9.01562 101.883 9.01562C101.719 9.01562 101.559 9.05078 101.402 9.12109C101.246 9.19141 101.102 9.30078 100.969 9.44922ZM105.703 24.4609C103.844 24.2891 102.906 23.9141 102.891 23.3359C102.812 20.9922 102.781 18.1133 102.797 14.6992C102.734 14.5742 102.598 14.4727 102.387 14.3945C101.301 14.9023 100.172 15.2227 99 15.3555C98.9531 15.543 98.9531 15.7266 99 15.9062C99.8828 15.9531 100.555 16.1133 101.016 16.3867C101.086 19.3008 101.078 21.6172 100.992 23.3359C100.977 23.9141 100.312 24.2891 99 24.4609C98.9219 24.6562 98.9219 24.8477 99 25.0352C101.242 24.9883 103.477 24.9883 105.703 25.0352C105.781 24.8477 105.781 24.6562 105.703 24.4609ZM106.137 24.0273C106.262 24.5117 106.262 24.9844 106.137 25.4453C103.621 25.3672 101.102 25.3672 98.5781 25.4453C98.4453 24.9844 98.4453 24.5117 98.5781 24.0273C99.8516 23.9023 100.496 23.6641 100.512 23.3125C100.613 21.125 100.621 18.9102 100.535 16.668C100.012 16.5117 99.3594 16.4102 98.5781 16.3633C98.3984 15.8945 98.3984 15.3984 98.5781 14.875C99.7578 14.8125 101.086 14.4609 102.562 13.8203C103.406 13.8828 104.035 14.1367 104.449 14.582C104.418 18.4258 104.449 21.3359 104.543 23.3125C104.566 23.6641 105.098 23.9023 106.137 24.0273ZM114.434 14.6055C114.34 14.8164 114.34 15 114.434 15.1562C114.676 15.1875 114.898 15.25 115.102 15.3438C115.312 15.4297 115.461 15.5586 115.547 15.7305C115.633 15.8945 115.559 16.082 115.324 16.293L112.945 18.543H112.008C111.992 16.2227 111.984 12.543 111.984 7.50391C111.906 7.36328 111.77 7.25781 111.574 7.1875C110.535 7.6875 109.328 8.00781 107.953 8.14844C107.906 8.34375 107.906 8.52734 107.953 8.69922C109.008 8.75391 109.762 8.91406 110.215 9.17969C110.215 10.1562 110.227 11.625 110.25 13.5859C110.273 15.5469 110.285 17.3125 110.285 18.8828C110.285 20.4453 110.25 21.9492 110.18 23.3945C110.164 23.9727 109.5 24.3477 108.188 24.5195C108.094 24.7148 108.094 24.8984 108.188 25.0703C109.219 25.0234 110.211 25 111.164 25C112.094 25 113.07 25.0234 114.094 25.0703C114.195 24.8984 114.195 24.7148 114.094 24.5195C112.75 24.3477 112.078 23.9727 112.078 23.3945C112.031 22.5273 112.008 21.1602 112.008 19.293H112.922L116.109 23.3945C116.578 23.9883 116.324 24.3398 115.348 24.4492C115.254 24.6367 115.254 24.8203 115.348 25H118.031C118.914 25 119.906 25.0234 121.008 25.0703C121.102 24.8984 121.102 24.7148 121.008 24.5195C120.016 24.4102 119.32 24.2188 118.922 23.9453C118.695 23.7969 118.496 23.6133 118.324 23.3945L114.34 18.3789L116.402 16.293C116.996 15.6836 117.98 15.3047 119.355 15.1562C119.418 14.9688 119.418 14.7852 119.355 14.6055C117.613 14.707 115.973 14.707 114.434 14.6055ZM114.223 14.125C116.332 14.2031 118.152 14.1953 119.684 14.1016C119.879 14.5859 119.891 15.0898 119.719 15.6133C118.258 15.7617 117.266 16.0977 116.742 16.6211L115.629 17.7578L119.883 23.1016C120.141 23.4219 120.367 23.6484 120.562 23.7812C120.766 23.9062 121.074 24.0078 121.488 24.0859C121.668 24.6016 121.652 25.0742 121.441 25.5039C119.84 25.4102 117.75 25.4102 115.172 25.5039C114.938 25.0117 114.906 24.5391 115.078 24.0859C115.547 23.9922 115.691 23.7617 115.512 23.3945L113.66 21.0391C113.66 22.0469 113.688 22.832 113.742 23.3945C113.773 23.7617 113.973 23.9922 114.34 24.0859C114.496 24.5 114.48 24.9727 114.293 25.5039C112.16 25.457 110.016 25.457 107.859 25.5039C107.539 25.0273 107.523 24.5547 107.812 24.0859C109.055 23.9297 109.688 23.6914 109.711 23.3711C109.742 22.5977 109.758 20.875 109.758 18.2031C109.758 17.5469 109.754 16.5664 109.746 15.2617C109.738 13.9492 109.734 13.0039 109.734 12.4258V9.47266C109.219 9.30859 108.504 9.20312 107.59 9.15625C107.418 8.69531 107.418 8.19922 107.59 7.66797C108.684 7.57422 110.07 7.22266 111.75 6.61328C112.594 6.67578 113.223 6.93359 113.637 7.38672V17.1953L114.984 15.9297C115.094 15.8203 115.086 15.7383 114.961 15.6836C114.898 15.668 114.641 15.6211 114.188 15.543C113.953 15.0977 113.965 14.625 114.223 14.125ZM125.555 8.53516C127.32 8.53516 128.203 9.17578 128.203 10.457C128.203 11.7383 127.32 12.3789 125.555 12.3789C125.289 12.3789 125.039 12.3281 124.805 12.2266C124.578 12.125 124.379 11.9883 124.207 11.8164C124.035 11.6367 123.898 11.4297 123.797 11.1953C123.695 10.9609 123.645 10.7148 123.645 10.457C123.645 10.1992 123.695 9.95312 123.797 9.71875C123.898 9.48438 124.035 9.28125 124.207 9.10938C124.379 8.92969 124.578 8.78906 124.805 8.6875C125.039 8.58594 125.289 8.53516 125.555 8.53516ZM124.477 9.44922C124.242 9.72266 124.125 10.0586 124.125 10.457C124.125 10.6602 124.156 10.8516 124.219 11.0312C124.289 11.2031 124.383 11.3555 124.5 11.4883C124.617 11.6133 124.75 11.7148 124.898 11.793C125.055 11.8633 125.219 11.8984 125.391 11.8984C125.555 11.8984 125.715 11.8633 125.871 11.793C126.027 11.7148 126.164 11.6133 126.281 11.4883C126.398 11.3555 126.492 11.2031 126.562 11.0312C126.633 10.8516 126.668 10.6602 126.668 10.457C126.668 10.2539 126.633 10.0664 126.562 9.89453C126.492 9.71484 126.398 9.5625 126.281 9.4375C126.164 9.30469 126.027 9.20312 125.871 9.13281C125.715 9.05469 125.555 9.01562 125.391 9.01562C125.227 9.01562 125.066 9.05078 124.91 9.12109C124.754 9.19141 124.609 9.30078 124.477 9.44922ZM129.211 24.4609C127.352 24.2891 126.414 23.9141 126.398 23.3359C126.32 20.9922 126.289 18.1133 126.305 14.6992C126.242 14.5742 126.105 14.4727 125.895 14.3945C124.809 14.9023 123.68 15.2227 122.508 15.3555C122.461 15.543 122.461 15.7266 122.508 15.9062C123.391 15.9531 124.062 16.1133 124.523 16.3867C124.594 19.3008 124.586 21.6172 124.5 23.3359C124.484 23.9141 123.82 24.2891 122.508 24.4609C122.43 24.6562 122.43 24.8477 122.508 25.0352C124.75 24.9883 126.984 24.9883 129.211 25.0352C129.289 24.8477 129.289 24.6562 129.211 24.4609ZM129.645 24.0273C129.77 24.5117 129.77 24.9844 129.645 25.4453C127.129 25.3672 124.609 25.3672 122.086 25.4453C121.953 24.9844 121.953 24.5117 122.086 24.0273C123.359 23.9023 124.004 23.6641 124.02 23.3125C124.121 21.125 124.129 18.9102 124.043 16.668C123.52 16.5117 122.867 16.4102 122.086 16.3633C121.906 15.8945 121.906 15.3984 122.086 14.875C123.266 14.8125 124.594 14.4609 126.07 13.8203C126.914 13.8828 127.543 14.1367 127.957 14.582C127.926 18.4258 127.957 21.3359 128.051 23.3125C128.074 23.6641 128.605 23.9023 129.645 24.0273Z" fill="#343A45"/>
</svg>
